<svg width="1435" height="944" viewBox="0 0 1435 944" fill="none" xmlns="http://www.w3.org/2000/svg">
<rect width="1435" height="944" fill="black"/>
<circle cx="721" cy="490" r="410" fill="#6B6B6B"/>
<g clip-path="url(#paint0_diamond_33_33_clip_path)" data-figma-skip-parse="true"><g transform="matrix(0 0.234 -0.234 0 698 490)"><rect x="0" y="0" width="1004.27" height="1004.27" fill="url(#paint0_diamond_33_33)" opacity="1" shape-rendering="crispEdges"/><rect x="0" y="0" width="1004.27" height="1004.27" transform="scale(1 -1)" fill="url(#paint0_diamond_33_33)" opacity="1" shape-rendering="crispEdges"/><rect x="0" y="0" width="1004.27" height="1004.27" transform="scale(-1 1)" fill="url(#paint0_diamond_33_33)" opacity="1" shape-rendering="crispEdges"/><rect x="0" y="0" width="1004.27" height="1004.27" transform="scale(-1)" fill="url(#paint0_diamond_33_33)" opacity="1" shape-rendering="crispEdges"/></g></g><path d="M464 461.664C464 364.713 464 316.238 494.119 286.119C524.238 256 572.713 256 669.664 256H726.336C823.288 256 871.763 256 901.882 286.119C932 316.238 932 364.713 932 461.664V518.336C932 615.288 932 663.763 901.882 693.882C871.763 724 823.288 724 726.336 724H669.664C572.713 724 524.238 724 494.119 693.882C464 663.763 464 615.288 464 518.336V461.664Z" data-figma-gradient-fill="{&#34;type&#34;:&#34;GRADIENT_DIAMOND&#34;,&#34;stops&#34;:[{&#34;color&#34;:{&#34;r&#34;:1.0,&#34;g&#34;:0.65179979801177979,&#34;b&#34;:0.36121544241905212,&#34;a&#34;:1.0},&#34;position&#34;:0.0},{&#34;color&#34;:{&#34;r&#34;:1.0,&#34;g&#34;:0.45490196347236633,&#34;b&#34;:0.0,&#34;a&#34;:1.0},&#34;position&#34;:1.0}],&#34;stopsVar&#34;:[{&#34;color&#34;:{&#34;r&#34;:1.0,&#34;g&#34;:0.65179979801177979,&#34;b&#34;:0.36121544241905212,&#34;a&#34;:1.0},&#34;position&#34;:0.0},{&#34;color&#34;:{&#34;r&#34;:1.0,&#34;g&#34;:0.45490196347236633,&#34;b&#34;:0.0,&#34;a&#34;:1.0},&#34;position&#34;:1.0}],&#34;transform&#34;:{&#34;m00&#34;:2.8656744132608131e-14,&#34;m01&#34;:-468.00015258789062,&#34;m02&#34;:932.00012207031250,&#34;m10&#34;:468.00015258789062,&#34;m11&#34;:2.8656744132608131e-14,&#34;m12&#34;:256.0},&#34;opacity&#34;:1.0,&#34;blendMode&#34;:&#34;NORMAL&#34;,&#34;visible&#34;:true}"/>
<path d="M1121 490C1121 596.087 1078.86 697.828 1003.84 772.843C928.828 847.857 827.087 890 721 890C614.913 890 513.172 847.857 438.157 772.843C363.143 697.828 321 596.087 321 490C321 383.913 363.143 282.172 438.157 207.157C513.172 132.143 614.913 90 721 90C827.087 90 928.828 132.143 1003.84 207.157C1078.86 282.172 1121 383.913 1121 490ZM735.35 385.3C696.45 401.5 618.65 435 502.05 485.8C483.15 493.3 473.2 500.7 472.3 507.9C470.8 520.05 486.05 524.85 506.8 531.4L515.55 534.15C535.95 540.8 563.45 548.55 577.7 548.85C590.7 549.15 605.15 543.85 621.1 532.85C730.05 459.3 786.3 422.15 789.8 421.35C792.3 420.75 795.8 420.05 798.1 422.15C800.45 424.2 800.2 428.15 799.95 429.2C798.45 435.65 738.6 491.25 707.65 520.05C698 529.05 691.15 535.4 689.75 536.85C686.667 540.001 683.533 543.101 680.35 546.15C661.35 564.45 647.15 578.15 681.1 600.55C697.45 611.35 710.55 620.2 723.6 629.1C737.8 638.8 752 648.45 770.4 660.55C775.05 663.55 779.55 666.8 783.9 669.9C800.45 681.7 815.4 692.3 833.75 690.6C844.45 689.6 855.5 679.6 861.1 649.6C874.35 578.75 900.4 425.3 906.4 362.05C906.766 356.792 906.548 351.51 905.75 346.3C905.279 342.096 903.245 338.223 900.05 335.45C895.5 332.309 890.077 330.682 884.55 330.8C869.55 331.05 846.4 339.1 735.35 385.3Z" fill="black"/>
<defs>
<clipPath id="paint0_diamond_33_33_clip_path"><path d="M464 461.664C464 364.713 464 316.238 494.119 286.119C524.238 256 572.713 256 669.664 256H726.336C823.288 256 871.763 256 901.882 286.119C932 316.238 932 364.713 932 461.664V518.336C932 615.288 932 663.763 901.882 693.882C871.763 724 823.288 724 726.336 724H669.664C572.713 724 524.238 724 494.119 693.882C464 663.763 464 615.288 464 518.336V461.664Z"/></clipPath><linearGradient id="paint0_diamond_33_33" x1="0" y1="0" x2="500" y2="500" gradientUnits="userSpaceOnUse">
<stop stop-color="#FFA65C"/>
<stop offset="1" stop-color="#FF7400"/>
</linearGradient>
</defs>
</svg>
